<?xml version="1.0" encoding="utf-8"?>
<!-- Generator: Adobe Illustrator 18.1.0, SVG Export Plug-In . SVG Version: 6.00 Build 0)  -->
<svg version="1.1" id="Layer_1" xmlns="http://www.w3.org/2000/svg" xmlns:xlink="http://www.w3.org/1999/xlink" x="0px" y="0px"
	 viewBox="0 0 106 106" enable-background="new 0 0 106 106" xml:space="preserve">
<g>
	<path fill-rule="evenodd" clip-rule="evenodd" fill="none" d="M98,61c-0.8,0-1.6-0.1-2.3-0.4c0.2,0.6,0.3,1.3,0.3,1.9
		c0,4.1-3.4,7.5-7.5,7.5c-4.1,0-7.5-3.4-7.5-7.5c0-1.3,0.3-2.5,0.9-3.5H59v22.9c1-0.6,2.2-0.9,3.5-0.9c4.1,0,7.5,3.4,7.5,7.5
		S66.6,96,62.5,96c-0.7,0-1.3-0.1-1.9-0.3c0.3,0.7,0.4,1.5,0.4,2.3c0,4.1-3.9,8-8,8s-8-3.9-8-8c0-0.8,0.1-1.6,0.4-2.3
		c-0.6,0.2-1.3,0.3-1.9,0.3c-4.1,0-7.5-3.4-7.5-7.5s3.4-7.5,7.5-7.5c1.3,0,2.5,0.3,3.5,0.9V59H24.1c0.6,1,0.9,2.2,0.9,3.5
		c0,4.1-3.4,7.5-7.5,7.5S10,66.6,10,62.5c0-0.7,0.1-1.3,0.3-1.9C9.6,60.8,8.8,61,8,61c-4.1,0-8-3.9-8-8s3.9-8,8-8
		c0.8,0,1.6,0.1,2.3,0.4c-0.2-0.6-0.3-1.3-0.3-1.9c0-4.1,3.4-7.5,7.5-7.5s7.5,3.4,7.5,7.5c0,1.3-0.3,2.5-0.9,3.5H47V24.1
		c-1,0.6-2.2,0.9-3.5,0.9c-4.1,0-7.5-3.4-7.5-7.5s3.4-7.5,7.5-7.5c0.7,0,1.3,0.1,1.9,0.3C45.2,9.6,45,8.8,45,8c0-4.1,3.9-8,8-8
		s8,3.9,8,8c0,0.8-0.1,1.6-0.4,2.3c0.6-0.2,1.3-0.3,1.9-0.3c4.1,0,7.5,3.4,7.5,7.5S66.6,25,62.5,25c-1.3,0-2.5-0.3-3.5-0.9V47h22.9
		c-0.6-1-0.9-2.2-0.9-3.5c0-4.1,3.4-7.5,7.5-7.5c4.1,0,7.5,3.4,7.5,7.5c0,0.7-0.1,1.3-0.3,1.9c0.7-0.3,1.5-0.4,2.3-0.4
		c4.1,0,8,3.9,8,8S102.1,61,98,61z"/>
</g>
</svg>
