<?xml version="1.0" encoding="utf-8"?>
<!-- Generator: Adobe Illustrator 18.1.0, SVG Export Plug-In . SVG Version: 6.00 Build 0)  -->
<svg version="1.1" id="Layer_1" xmlns="http://www.w3.org/2000/svg" xmlns:xlink="http://www.w3.org/1999/xlink" x="0px" y="0px"
	 viewBox="0 0 1679 99" enable-background="new 0 0 1679 99" xml:space="preserve">
<g>
	<path fill-rule="evenodd" clip-rule="evenodd" fill="rgba(55,39,26,0.5)" d="M0,85c0,0,15.3-25.2,16-30c1.3,1.1,7,5,7,5l1-13l19-27v-5l-5,2v-5
		l-2-3l7-4h2v15l51,6v-4l-4,3l-1-3l-3-2l8-5h2v11l5,6c0,0,17.3-10.9,20-14c13.7,0.4,42-5,42-5l8,8c0,0,11.5-11.1,12-14
		c0.5-2.9,0-5,0-5h2v5c0,0,25.5,33.5,29,35c0.7-0.2,15-17,15-17h60c0,0,24.6,27.4,33,31c-3.7,0.9-4,1-4,1l-1,31l32-2
		c0,0,7.5-14.8,12-31c7.9-6.2,19-22,19-22l1-3h1v3c0,0,13.2,16.6,21,21c3.5,11.7,5,17,5,17l4-17c0,0,12.3-9.8,14-13c2.3,0.2,3,3,3,3
		s13.7-12.8,16-18c-0.2-3.5,0-4,0-4h3v4c0,0,18.4,22.5,26,27c14.1-21.8,23-37,23-37h2c0,0,34.2,55,39,59c0.5-0.9,2-28,2-28l-1-3
		c0,0,38.9-7.8,60-35c0.9-1.8,1-9,1-9h1l3,5v4l-3-4v3c0,0,35.3,38.3,76,40c1.1,0.6,1,38,1,38h5V57l-1-1c0,0,11.4-15.7,16-24
		c11.5-1.8,101-13,101-13v2l-11,2c0,0,6.3,30.4,12,36c0.7-2.3,10-20,10-20l-3-4l2-1l2,3l3-3l1,1l-2,4l27,2l-2-3l1-1l2,2l2-3l1,1
		l-2,4c0,0,19.1,42.6,23,45c0.5,0.3,3,0,3,0V52l-7,2v-2h-3v-5l10-3h1v42h7c0,0,20-46.6,25-55c-1.6-2.3-3-5-3-5l2-1l2,4l3-5l2,2l-2,4
		l18,4l-2-3l1-1l2,3l2-3l2,1l-2,4l7,11l2-3l-4-5l1-1l4,4l5-5l1,1l-4,6l10,2l-3-3l1-1l4,4l4-4l-1-1l2-2l3,4l4-4l2,2l-3,4l14,3l-2-2
		l2-1l1,1l2-1l2,1l-2,3l3,2v-3l5,2l7,1l10,12l21-39l-8-8l2-2l7,8l5-9l2,1l-5,11l6,3l-4-5l1-1l5,5l5-6l2,1l-4,8c0,0,47.3,56.5,50,58
		c0.5,0.2,10.5-17.9,12-35c21.7-26.7,29-35,29-35v-3h2v3l32,1v-3h2v4c0,0,27.1,36.2,39,38c8.8-5.1,33.3-23.2,39-33
		c10.5,21.3,27,32,27,32l2,29c0,0,5.3-38,3-38s-4,0-4,0l1-3c0,0,18.1-17.7,19-20s1-8,1-8h2v8c0,0,13.9,4,27,4s25-3,25-3v-9h2l1,9
		c0,0,11,17.4,17,18c6,0.6,20-1,20-1v3v24c0,0,9.9-14.4,13-27c7-8.6,18-24,18-24l1-5h2v4l19-3l1-4h2v4c0,0,10.8,19,16,24
		c3.2,8,11,19,11,19s8-7.4,9-11c6.5-0.4,27,2,27,2l4,4v-7l60-1l10-23V10l5,1l-1,3l1,2l-4-1v6l71-7V3l6,2l-2,2l1,3l-4-1l1,5
		c0,0,5.9,20.3,11,23c1,7.4,13,50,13,50v12H1L0,85z"/>
	<path fill-rule="evenodd" clip-rule="evenodd" fill="none" d="M954,46l2,3l3-4l-2-3L954,46"/>
	<path fill-rule="evenodd" clip-rule="evenodd" fill="transparent" d="M1387,84V46l-19,2c0,0,10.8,33.6,14,36
		C1386.7,84.2,1387,84,1387,84"/>
	<path fill-rule="evenodd" clip-rule="evenodd" fill="none" d="M1513,54v8l10-9h-10V54z"/>
	<path fill-rule="evenodd" clip-rule="evenodd" fill="transparent" d="M1542,51v4l6-4H1542z"/>
</g>
</svg>
